<svg width="163" height="46" viewBox="0 0 163 46" fill="none" xmlns="http://www.w3.org/2000/svg">
<g id="Group">
<g id="Group_2">
<g id="Group_3">
<path id="Vector" d="M48.002 21.5541V18.747C48.439 19.1008 48.8111 19.3662 49.1182 19.5549C49.7442 19.9441 50.3171 20.1388 50.8309 20.1388C51.1616 20.1388 51.4451 20.0326 51.6813 19.8262C51.9234 19.6198 52.0416 19.3485 52.0416 19.0241C52.0416 18.629 51.8821 18.2221 51.5632 17.8034C51.3801 17.5616 50.9785 17.1429 50.3584 16.5354C49.3899 15.5977 48.7579 14.8547 48.4508 14.3003C48.067 13.628 47.8721 12.9675 47.8721 12.3188C47.8721 11.2631 48.3091 10.4021 49.1832 9.73568C49.8859 9.19312 50.7246 8.92773 51.6872 8.92773C52.6203 8.92773 53.6007 9.19902 54.6224 9.74748V12.2362C54.1736 11.9826 53.8192 11.7939 53.5534 11.6818C52.9688 11.4106 52.4491 11.2749 52.0061 11.2749C51.6872 11.2749 51.4215 11.3457 51.2029 11.4813C50.9372 11.6523 50.8013 11.8823 50.8013 12.1831C50.8013 12.5134 50.9962 12.9085 51.3801 13.3626C51.4982 13.5041 51.9412 13.9465 52.7089 14.6895C53.6775 15.6272 54.3389 16.4234 54.6874 17.078C54.9827 17.6441 55.1303 18.2398 55.1303 18.8708C55.1303 19.897 54.7759 20.7698 54.0732 21.4775C53.3172 22.2265 52.3723 22.598 51.2443 22.598C50.2698 22.598 49.1891 22.25 48.002 21.5541Z" fill="#269DA2"/>
<path id="Vector_2" d="M57.0674 22.4268V9.10449H59.8372L62.8905 14.5891L65.867 9.10449H68.6959V22.4268H65.8198V13.905L63.1385 18.9473H62.5716L59.9494 13.905V22.4209H57.0674V22.4268Z" fill="#269DA2"/>
<path id="Vector_3" d="M71.6543 22.4268V9.10449H74.7076V22.4268H71.6543Z" fill="#269DA2"/>
<path id="Vector_4" d="M77.9268 22.4268V9.10449H80.9801V20.0265H85.8405V22.4268H77.9268Z" fill="#269DA2"/>
<path id="Vector_5" d="M87.5527 22.4268V9.10449H95.3484V11.4281H90.606V14.4947H95.0058V16.8183H90.606V20.1091H95.5078V22.4327H87.5527V22.4268Z" fill="#269DA2"/>
</g>
<g id="Group_4">
<path id="Vector_6" d="M103.245 21.5541V18.747C103.682 19.1008 104.054 19.3662 104.361 19.5549C104.987 19.9441 105.56 20.1388 106.074 20.1388C106.405 20.1388 106.688 20.0326 106.924 19.8262C107.167 19.6198 107.285 19.3485 107.285 19.0241C107.285 18.629 107.125 18.2221 106.806 17.8034C106.623 17.5616 106.222 17.137 105.602 16.5354C104.633 15.5977 104.001 14.8547 103.694 14.3003C103.31 13.628 103.115 12.9675 103.115 12.3188C103.115 11.2631 103.552 10.4021 104.426 9.73568C105.129 9.19312 105.968 8.92773 106.93 8.92773C107.863 8.92773 108.844 9.19902 109.866 9.74748V12.2362C109.417 11.9826 109.062 11.7998 108.797 11.6818C108.212 11.4106 107.692 11.269 107.249 11.269C106.93 11.269 106.665 11.3398 106.446 11.4754C106.18 11.6465 106.045 11.8765 106.045 12.1772C106.045 12.5075 106.239 12.9026 106.623 13.3567C106.741 13.4982 107.184 13.9406 107.952 14.6836C108.921 15.6213 109.582 16.4175 109.931 17.0721C110.226 17.6382 110.373 18.2339 110.373 18.8649C110.373 19.8911 110.019 20.7639 109.316 21.4716C108.56 22.2206 107.615 22.5921 106.487 22.5921C105.513 22.598 104.432 22.25 103.245 21.5541Z" fill="white"/>
<path id="Vector_7" d="M114.744 22.4268V11.4281H111.702V9.10449H120.762V11.4281H117.797V22.4268H114.744Z" fill="white"/>
<path id="Vector_8" d="M122.285 9.10449H125.338V17.2135C125.338 17.9801 125.35 18.4578 125.38 18.6406C125.533 19.6491 126.065 20.1504 126.963 20.1504C127.654 20.1504 128.132 19.8319 128.398 19.2009C128.498 18.965 128.551 18.676 128.575 18.334C128.581 18.2219 128.587 17.8504 128.587 17.2135V9.10449H131.64V17.2842C131.64 18.2514 131.581 18.9768 131.463 19.4604C131.191 20.6104 130.571 21.4655 129.614 22.014C128.923 22.4032 128.037 22.5978 126.963 22.5978C125.096 22.5978 123.773 21.9904 122.994 20.7755C122.645 20.233 122.427 19.5665 122.338 18.7645C122.303 18.4401 122.291 17.9447 122.291 17.2842V9.10449H122.285Z" fill="white"/>
<path id="Vector_9" d="M134.393 22.4268V9.10449H137.895C138.686 9.10449 139.288 9.14577 139.714 9.22244C141.113 9.49372 142.23 10.2604 143.05 11.5165C143.777 12.6312 144.137 14.0112 144.137 15.6624C144.137 17.1958 143.836 18.5109 143.228 19.6019C142.478 20.9465 141.474 21.8135 140.216 22.1909C139.684 22.3442 138.975 22.4268 138.084 22.4268H134.393ZM137.446 20.1681H138.054C138.975 20.1681 139.655 19.9204 140.098 19.425C140.73 18.735 141.048 17.5319 141.048 15.8158C141.048 13.8991 140.67 12.5899 139.915 11.894C139.613 11.6227 139.253 11.4576 138.84 11.3986C138.645 11.375 138.355 11.3573 137.971 11.3573H137.452V20.1681H137.446Z" fill="white"/>
<path id="Vector_10" d="M146.652 22.4268V9.10449H149.706V22.4268H146.652Z" fill="white"/>
<path id="Vector_11" d="M157.608 8.92773C158.252 8.92773 158.884 9.06338 159.492 9.33466C160.1 9.60594 160.632 9.97748 161.081 10.4611C162.232 11.6995 162.811 13.4334 162.811 15.6626C162.811 18.0452 162.191 19.8911 160.951 21.2062C160.071 22.138 158.937 22.6039 157.549 22.6039C156.161 22.6039 155.027 22.138 154.147 21.2062C152.907 19.8852 152.287 18.0511 152.287 15.7039C152.287 13.4452 152.866 11.6995 154.017 10.467C154.968 9.44081 156.167 8.92773 157.608 8.92773ZM157.519 11.5462C157.212 11.5462 156.923 11.6229 156.645 11.7703C156.368 11.9177 156.149 12.1241 155.996 12.3777C155.582 13.0265 155.382 14.1234 155.382 15.6685C155.382 17.0308 155.523 18.057 155.813 18.7647C155.978 19.148 156.208 19.4488 156.515 19.667C156.823 19.8852 157.165 19.9913 157.555 19.9913C157.939 19.9913 158.287 19.8852 158.594 19.667C158.901 19.4488 159.138 19.148 159.291 18.7647C159.581 18.0629 159.722 17.0485 159.722 15.7216C159.722 14.5834 159.634 13.7282 159.457 13.168C159.132 12.0829 158.482 11.5462 157.519 11.5462Z" fill="white"/>
</g>
<g id="Group_5">
<path id="Vector_12" d="M54.1495 34.3807H52.7262V28.8548H51.0785L51.0076 29.4682C50.8186 31.031 50.6473 32.1279 50.5056 32.7589C50.3579 33.3899 50.1453 33.8382 49.8678 34.0917C49.5902 34.3512 49.2122 34.4751 48.7339 34.4692C48.474 34.4692 48.2496 34.4338 48.0547 34.3689V33.2012C48.2319 33.2602 48.3972 33.2956 48.5567 33.2956C48.7161 33.2956 48.8461 33.2189 48.9406 33.0715C49.035 32.9241 49.1236 32.6469 49.2122 32.2458C49.2949 31.8448 49.4071 31.1843 49.5489 30.2702C49.6906 29.3561 49.8087 28.4892 49.9032 27.6694H54.1495V34.3807Z" fill="white"/>
<path id="Vector_13" d="M60.0732 34.3814L59.583 32.7832H57.1321L56.642 34.3814H55.1064L57.4806 27.6406H59.2228L61.6087 34.3814H60.0732ZM59.2464 31.5919C58.7976 30.147 58.5436 29.3273 58.4846 29.1386C58.4255 28.9499 58.3901 28.7965 58.3605 28.6904C58.2601 29.0796 57.9708 30.0527 57.4924 31.5978H59.2464V31.5919Z" fill="white"/>
<path id="Vector_14" d="M63.9946 30.2466H64.5557C65.4356 30.2466 66.1089 30.4235 66.5873 30.7774C67.0656 31.1312 67.3078 31.6325 67.3078 32.2812C67.3078 33.6789 66.3806 34.3807 64.5262 34.3807H62.5654V27.6694H66.8176V28.843H63.9946V30.2466ZM63.9946 33.213H64.473C64.9573 33.213 65.3057 33.1364 65.5301 32.983C65.7546 32.8297 65.8668 32.5938 65.8668 32.2812C65.8668 31.9746 65.7546 31.7505 65.5242 31.6148C65.2998 31.4792 64.91 31.4084 64.3549 31.4084H63.9887V33.213H63.9946Z" fill="white"/>
<path id="Vector_15" d="M74.7075 31.0135C74.7075 32.1222 74.43 32.9774 73.8807 33.573C73.3315 34.1686 72.5342 34.4694 71.5066 34.4694C70.4731 34.4694 69.6817 34.1686 69.1325 33.573C68.5832 32.9774 68.3057 32.1222 68.3057 31.0017C68.3057 29.8871 68.5832 29.032 69.1384 28.4422C69.6935 27.8525 70.4849 27.5576 71.5184 27.5576C72.5519 27.5576 73.3433 27.8525 73.8925 28.4481C74.43 29.0497 74.7075 29.9048 74.7075 31.0135ZM69.7939 31.0135C69.7939 31.7625 69.9357 32.3286 70.2191 32.7061C70.5026 33.0835 70.9278 33.2781 71.5007 33.2781C72.6405 33.2781 73.2075 32.5233 73.2075 31.0135C73.2075 29.5038 72.6405 28.7489 71.5066 28.7489C70.9396 28.7489 70.5085 28.9376 70.225 29.321C69.9416 29.7043 69.7939 30.2645 69.7939 31.0135Z" fill="white"/>
<path id="Vector_16" d="M80.7016 29.7635C80.7016 30.483 80.4772 31.0374 80.0225 31.4207C79.5677 31.804 78.924 31.9927 78.0913 31.9927H77.4771V34.3812H76.0479V27.6699H78.1976C79.0126 27.6699 79.6327 27.8468 80.0579 28.1948C80.489 28.5486 80.7016 29.0676 80.7016 29.7635ZM77.4771 30.8251H77.9436C78.3806 30.8251 78.7114 30.7366 78.9299 30.5656C79.1484 30.3945 79.2547 30.1409 79.2547 29.8107C79.2547 29.4745 79.1661 29.2327 78.983 29.0735C78.8 28.9143 78.5165 28.8376 78.1267 28.8376H77.4771V30.8251Z" fill="white"/>
<path id="Vector_17" d="M85.7099 34.3814L85.2198 32.7832H82.7688L82.2787 34.3814H80.7432L83.1173 27.6406H84.8595L87.2454 34.3814H85.7099ZM84.8831 31.5919C84.4343 30.147 84.1803 29.3273 84.1213 29.1386C84.0622 28.9499 84.0268 28.7965 83.9973 28.6904C83.8969 29.0796 83.6075 30.0527 83.1291 31.5978H84.8831V31.5919Z" fill="white"/>
<path id="Vector_18" d="M90.216 34.3807H88.7868V28.8548H86.9619V27.6694H92.0409V28.8548H90.216V34.3807Z" fill="white"/>
<path id="Vector_19" d="M99.146 31.0135C99.146 32.1222 98.8685 32.9774 98.3192 33.573C97.77 34.1686 96.9727 34.4694 95.9451 34.4694C94.9175 34.4694 94.1202 34.1686 93.571 33.573C93.0217 32.9774 92.7441 32.1222 92.7441 31.0017C92.7441 29.8871 93.0217 29.032 93.5769 28.4422C94.132 27.8525 94.9234 27.5576 95.9569 27.5576C96.9904 27.5576 97.7818 27.8525 98.331 28.4481C98.8744 29.0497 99.146 29.9048 99.146 31.0135ZM94.2383 31.0135C94.2383 31.7625 94.38 32.3286 94.6635 32.7061C94.947 33.0835 95.3722 33.2781 95.9451 33.2781C97.0849 33.2781 97.6519 32.5233 97.6519 31.0135C97.6519 29.5038 97.0849 28.7489 95.951 28.7489C95.384 28.7489 94.9529 28.9376 94.6694 29.321C94.386 29.7043 94.2383 30.2645 94.2383 31.0135Z" fill="white"/>
<path id="Vector_20" d="M105.14 29.763C105.14 30.4825 104.916 31.0369 104.461 31.4202C104.006 31.8035 103.362 31.9923 102.53 31.9923H101.916V34.3807H100.486V27.6694H102.636C103.451 27.6694 104.071 27.8464 104.496 28.1943C104.927 28.5482 105.14 29.0671 105.14 29.763ZM101.916 30.8246H102.382C102.819 30.8246 103.15 30.7361 103.368 30.5651C103.587 30.3941 103.693 30.1405 103.693 29.8102C103.693 29.474 103.605 29.2323 103.422 29.073C103.238 28.9138 102.955 28.8371 102.565 28.8371H101.916V30.8246Z" fill="white"/>
<path id="Vector_21" d="M106.31 27.67H107.591V30.9077L107.573 31.7746L107.526 32.7594H107.556L110.662 27.6641H112.369V34.3812H111.099V31.1612C111.099 30.7307 111.129 30.0879 111.182 29.2446H111.146L108.028 34.3871H106.31V27.67Z" fill="white"/>
<path id="Vector_22" d="M116.462 31.804L114.891 34.3812H113.308L115.221 31.4324C114.843 31.2791 114.548 31.0432 114.347 30.7248C114.146 30.4063 114.046 30.0289 114.046 29.5924C114.046 28.9791 114.265 28.5014 114.702 28.1712C115.139 27.8409 115.765 27.6758 116.586 27.6758H118.777V34.3812H117.347V31.804H116.462ZM117.347 28.8376H116.645C116.278 28.8376 115.989 28.9024 115.788 29.0322C115.587 29.1619 115.487 29.3801 115.487 29.6868C115.487 29.9817 115.588 30.2176 115.782 30.3886C115.977 30.5596 116.278 30.6481 116.686 30.6481H117.353V28.8376H117.347Z" fill="white"/>
<path id="Vector_23" d="M128.22 27.6699L126.141 32.4174C125.882 33.013 125.634 33.4435 125.409 33.703C125.179 33.9625 124.907 34.1571 124.594 34.2809C124.281 34.4107 123.903 34.4697 123.454 34.4697C123.07 34.4697 122.716 34.4225 122.379 34.334V33.1133C122.651 33.2253 122.988 33.2784 123.389 33.2784C123.643 33.2784 123.85 33.2194 124.004 33.1015C124.157 32.9835 124.293 32.7771 124.393 32.4881L122.066 27.6699H123.578L125.232 31.4089H125.279L125.362 31.1789L126.75 27.6699H128.22Z" fill="white"/>
<path id="Vector_24" d="M133.972 34.3812H132.548V28.8553H130.901L130.83 29.4686C130.641 31.0315 130.47 32.1284 130.328 32.7594C130.18 33.3904 129.968 33.8386 129.69 34.0922C129.412 34.3517 129.034 34.4756 128.556 34.4697C128.296 34.4697 128.072 34.4343 127.877 34.3694V33.2017C128.054 33.2607 128.219 33.2961 128.379 33.2961C128.544 33.2961 128.668 33.2194 128.763 33.072C128.857 32.9245 128.946 32.6474 129.034 32.2463C129.117 31.8453 129.229 31.1848 129.371 30.2707C129.513 29.3566 129.631 28.4897 129.725 27.6699H133.972V34.3812Z" fill="white"/>
<path id="Vector_25" d="M140.203 32.2817C140.203 32.9776 139.973 33.5025 139.506 33.8563C139.04 34.2043 138.355 34.3812 137.445 34.3812H135.603V27.6699H137.032V30.2471H137.492C138.355 30.2471 139.022 30.424 139.494 30.7838C139.967 31.1376 140.203 31.6389 140.203 32.2817ZM137.032 33.2135H137.404C137.87 33.2135 138.219 33.1368 138.437 32.9835C138.656 32.8302 138.762 32.5943 138.762 32.2817C138.762 31.9692 138.656 31.745 138.449 31.6094C138.237 31.4738 137.87 31.4089 137.345 31.4089H137.038V33.2135H137.032ZM142.447 34.3812H141.024V27.6699H142.447V34.3812Z" fill="white"/>
<path id="Vector_26" d="M145.5 30.2466H146.061C146.941 30.2466 147.615 30.4235 148.093 30.7774C148.571 31.1312 148.813 31.6325 148.813 32.2812C148.813 33.6789 147.886 34.3807 146.032 34.3807H144.071V27.6694H148.323V28.843H145.5V30.2466ZM145.5 33.213H145.979C146.463 33.213 146.811 33.1364 147.036 32.983C147.26 32.8297 147.372 32.5938 147.372 32.2812C147.372 31.9746 147.26 31.7505 147.03 31.6148C146.8 31.4792 146.416 31.4084 145.861 31.4084H145.494V33.213H145.5Z" fill="white"/>
<path id="Vector_27" d="M156.213 31.0135C156.213 32.1222 155.936 32.9774 155.387 33.573C154.837 34.1686 154.04 34.4694 153.012 34.4694C151.979 34.4694 151.188 34.1686 150.638 33.573C150.089 32.9774 149.812 32.1222 149.812 31.0017C149.812 29.8871 150.089 29.032 150.644 28.4422C151.199 27.8525 151.991 27.5576 153.024 27.5576C154.058 27.5576 154.849 27.8525 155.398 28.4481C155.948 29.0438 156.213 29.9048 156.213 31.0135ZM151.3 31.0135C151.3 31.7625 151.442 32.3286 151.725 32.7061C152.008 33.0835 152.434 33.2781 153.007 33.2781C154.146 33.2781 154.713 32.5233 154.713 31.0135C154.713 29.5038 154.146 28.7489 153.012 28.7489C152.446 28.7489 152.014 28.9376 151.731 29.321C151.447 29.7043 151.3 30.2645 151.3 31.0135Z" fill="white"/>
<path id="Vector_28" d="M163.046 34.3812H161.428L158.989 30.9784V34.3812H157.56V27.6699H158.989V30.9194L161.398 27.6699H162.916L160.465 30.8899L163.046 34.3812Z" fill="white"/>
</g>
</g>
<path id="Vector_29" fill-rule="evenodd" clip-rule="evenodd" d="M30.929 13.2335L30.8758 13.7112C30.7813 14.5605 30.1967 15.2976 29.3935 15.5866C29.1336 15.681 28.856 15.7812 28.5903 15.8756L28.2596 18.7653C28.6021 18.842 28.921 18.9894 29.1986 19.2194C29.801 19.7089 30.1081 20.4579 30.0195 21.2246C29.8836 22.3982 29.0982 23.3653 28.0115 23.731C27.9052 23.7664 27.793 23.8017 27.6867 23.8371L27.3619 26.721C27.7044 26.7976 28.0292 26.951 28.3068 27.181C28.9033 27.6705 29.2045 28.4194 29.1218 29.1861L29.0805 29.54C28.9742 30.4894 28.3127 31.2974 27.3973 31.5923C27.1965 31.6571 26.9898 31.7161 26.789 31.781L26.4642 34.653C26.8126 34.7356 27.1375 34.8948 27.415 35.1248C28.0056 35.6202 28.3068 36.3751 28.2241 37.1359C28.0883 38.333 27.2615 39.312 26.1158 39.6423C26.0449 39.6659 25.9681 39.6835 25.8972 39.7071L25.8441 40.1848C25.472 43.4284 22.7258 45.9525 19.4481 46.0646C19.4422 46.0646 19.4304 46.0646 19.4186 46.0646C19.3595 46.0646 19.2886 46.0705 19.2237 46.0705C19.141 46.0705 19.0583 46.0528 18.9815 46.0351C16.4893 45.7697 14.375 44.1656 13.4714 41.8892C13.4419 41.8892 13.4065 41.8951 13.3769 41.8951C13.3356 41.8951 13.3002 41.901 13.2588 41.901C12.2785 41.901 11.4517 41.1697 11.3394 40.1907L11.2568 39.4594C11.18 38.7989 11.3867 38.1325 11.8119 37.6194C12.0481 37.3423 12.3434 37.1241 12.6742 36.9766L12.3611 34.2048C11.3513 34.0043 10.5481 33.1728 10.424 32.1053L10.3945 31.8282C10.3177 31.1676 10.5244 30.4953 10.9556 29.9882C11.1918 29.711 11.4871 29.4987 11.8178 29.3512L11.5048 26.5794C10.489 26.3671 9.68582 25.5297 9.56771 24.4623L9.52637 24.1792C9.44959 23.5187 9.65629 22.8523 10.0992 22.3451C10.3355 22.0738 10.6308 21.8674 10.9556 21.72L10.6248 18.8656C9.58542 18.5353 8.78224 17.6271 8.65821 16.5007C8.58735 15.8461 8.79405 15.1797 9.22517 14.6843C9.4614 14.413 9.75669 14.2125 10.0874 14.071L9.53818 9.25867C9.48503 8.79278 9.82166 8.37406 10.2882 8.32098C10.7548 8.26201 11.1741 8.60406 11.2272 9.06406L11.7765 13.8469C12.4025 13.8233 13.1407 13.7879 13.8848 13.7348C17.4283 13.4753 20.9718 12.8738 24.409 11.9479C25.3952 11.6825 26.411 11.37 27.4268 11.0279L27.6454 9.06406C27.6985 8.59816 28.1178 8.26201 28.5844 8.31508C29.0509 8.36816 29.3876 8.78688 29.3344 9.25278L29.1631 10.792C29.4998 10.8628 29.8187 11.0102 30.0963 11.2343C30.7046 11.7179 31.0176 12.4669 30.929 13.2335ZM25.0173 32.2941C21.4502 33.273 17.7768 33.9041 14.0679 34.1753L14.3514 36.6758C17.8358 36.3928 21.3321 35.7735 24.7279 34.83L25.0173 32.2941ZM19.4245 44.3661C21.7632 44.2894 23.7593 42.5025 24.1196 40.1848C21.208 40.9338 18.2433 41.4528 15.2786 41.73C16.0877 43.2692 17.6468 44.2835 19.4245 44.3661ZM12.9517 39.2589L13.0344 39.9902C13.0344 39.9902 13.0344 39.9902 13.0344 39.9961C13.0462 40.1141 13.1525 40.1966 13.2765 40.1966C17.1626 39.9607 21.0604 39.3002 24.8578 38.2387C24.8696 38.2328 24.8873 38.2328 24.8992 38.2269C25.1472 38.1561 25.3952 38.0912 25.6433 38.0146C26.1276 37.873 26.4819 37.4602 26.5351 36.9589C26.5587 36.7407 26.4819 36.5461 26.3284 36.4164C26.2162 36.322 26.0803 36.2748 25.9386 36.2748C25.8795 36.2748 25.8264 36.2807 25.7732 36.2984C21.8222 37.4366 17.7531 38.1502 13.6663 38.4215C13.6486 38.4215 13.6309 38.4215 13.6073 38.4215C13.4478 38.4333 13.2529 38.5276 13.123 38.6869C12.9872 38.852 12.9281 39.0584 12.9517 39.2589ZM12.0836 31.6394L12.1131 31.9166C12.1544 32.3 12.497 32.5889 12.8809 32.5594L13.0639 32.5476C17.3811 32.3 21.6451 31.551 25.7555 30.3243C25.7614 30.3243 25.7673 30.3184 25.7732 30.3184C26.1394 30.2064 26.5055 30.0943 26.8776 29.9764C27.1611 29.8879 27.3619 29.6402 27.3973 29.3453L27.4386 28.9915C27.4623 28.7969 27.3855 28.6082 27.2319 28.4784C27.1256 28.39 26.9957 28.3428 26.8599 28.3428C26.8008 28.3428 26.7418 28.3487 26.6886 28.3664C25.7023 28.6671 24.6925 28.9502 23.6648 29.2097C20.1214 30.0825 16.4657 30.6251 12.7982 30.8138C12.7805 30.8138 12.7568 30.8138 12.7391 30.8138C12.5856 30.8256 12.3907 30.92 12.2608 31.0733C12.1249 31.2325 12.06 31.4389 12.0836 31.6394ZM25.915 24.3856C25.0291 24.6451 24.1196 24.8869 23.1983 25.1051C20.6942 25.7007 18.1134 26.1371 15.5208 26.3966C14.7648 26.4733 13.9852 26.5264 13.2057 26.5735L13.4892 29.0741C16.761 28.8559 20.0446 28.3605 23.2337 27.5761C24.0428 27.3697 24.846 27.1515 25.6256 26.9215L25.915 24.3856ZM11.2213 23.9905L11.2509 24.2794C11.2922 24.6687 11.6347 24.9459 12.0304 24.9459L12.2253 24.9341C13.2825 24.8928 14.3337 24.8161 15.3554 24.7159C17.8654 24.4623 20.3694 24.0435 22.8026 23.4656C24.096 23.153 25.3657 22.8051 26.5764 22.4218C26.6 22.41 26.6236 22.4041 26.6532 22.3923C26.9307 22.3038 27.2083 22.2153 27.48 22.1269C27.9406 21.9735 28.2773 21.5607 28.3304 21.083C28.36 20.8471 28.2773 20.6584 28.1296 20.5346C27.9761 20.4107 27.7753 20.3753 27.5922 20.4343C26.287 20.8589 24.97 21.2364 23.6767 21.5548C20.9068 22.2448 18.0602 22.7225 15.2077 22.9879C14.1388 23.0882 13.0344 23.1648 11.9241 23.2061C11.9182 23.2061 11.9123 23.2061 11.9123 23.2061C11.7174 23.212 11.5284 23.3005 11.3985 23.4538C11.2568 23.5953 11.1977 23.7959 11.2213 23.9905ZM26.8126 16.4535C26.0272 16.6953 25.2535 16.9253 24.4621 17.1317C24.4385 17.1376 24.4149 17.1494 24.3913 17.1553C21.1844 17.9928 17.8654 18.5589 14.5227 18.8302C13.8317 18.8892 13.0994 18.9364 12.3493 18.9659L12.6387 21.4723C13.4419 21.431 14.251 21.3779 15.0424 21.3012C17.8122 21.0476 20.5761 20.5759 23.2632 19.9094C24.3499 19.6441 25.4425 19.3256 26.5292 18.9835L26.8126 16.4535ZM29.0332 12.5553C28.8856 12.4374 28.6848 12.402 28.5076 12.461C27.2674 12.8856 26.0449 13.263 24.8578 13.5874C21.3143 14.5428 17.6646 15.162 14.0089 15.4274C12.869 15.51 11.7469 15.5512 11.0028 15.5689C10.8138 15.5748 10.6367 15.6574 10.5126 15.7989C10.3886 15.9405 10.3296 16.1233 10.3532 16.312C10.4181 16.8959 10.9083 17.3205 11.5048 17.3028C12.5147 17.2733 13.4833 17.2143 14.3868 17.1435C17.6055 16.8782 20.8005 16.3356 23.8893 15.5335C23.9129 15.5276 23.9365 15.5159 23.966 15.51C25.159 15.1974 26.3284 14.8553 27.539 14.4484C27.8757 14.3364 28.3836 14.1535 28.8147 13.9943C29.0155 13.9235 29.1631 13.7348 29.1868 13.5225L29.234 13.092C29.2576 12.8561 29.1809 12.6733 29.0332 12.5553Z" fill="white"/>
<path id="Vector_30" fill-rule="evenodd" clip-rule="evenodd" d="M34.7438 10.6387C26.4934 10.6387 19.8021 17.3322 19.8021 25.5887V34.0102V34.0043C19.8021 34.0043 16.7901 38.2917 15.7625 39.2176C14.7349 40.1435 11.5635 47.2146 5.79354 34.6294C0.0176751 22.0384 -0.0827242 11.7238 0.0176744 10.1787C0.118073 8.63352 0.106262 4.59378 3.31311 1.92224C5.94119 -0.265709 9.70318 -0.44853 12.3785 0.683778C15.0597 1.81609 19.7962 6.05045 19.7962 6.05045C19.7962 6.05045 24.5326 1.82198 27.2139 0.683778C29.8951 -0.44853 33.6512 -0.265709 36.2793 1.92224C39.4861 4.59378 39.4743 8.62763 39.5747 10.1787C39.5806 10.2907 39.5865 10.444 39.5924 10.6445H34.7438V10.6387Z" fill="#239CA2"/>
</g>
</svg>
