<svg width="32" height="32" viewBox="0 0 32 32" fill="none" xmlns="http://www.w3.org/2000/svg">
<path d="M16.0003 30.3332C8.09366 30.3332 1.66699 23.9065 1.66699 15.9998C1.66699 8.09317 8.09366 1.6665 16.0003 1.6665C23.907 1.6665 30.3337 8.09317 30.3337 15.9998C30.3337 23.9065 23.907 30.3332 16.0003 30.3332ZM16.0003 3.6665C9.20033 3.6665 3.66699 9.19984 3.66699 15.9998C3.66699 22.7998 9.20033 28.3332 16.0003 28.3332C22.8003 28.3332 28.3337 22.7998 28.3337 15.9998C28.3337 9.19984 22.8003 3.6665 16.0003 3.6665Z" fill="url(#paint0_linear_86_14665)"/>
<path d="M14.3199 21.7069C14.0666 21.7069 13.8132 21.6135 13.6132 21.4135C13.2266 21.0269 13.2266 20.3869 13.6132 20.0002L17.6132 16.0002L13.6132 12.0002C13.2266 11.6135 13.2266 10.9735 13.6132 10.5869C13.9999 10.2002 14.6399 10.2002 15.0266 10.5869L19.7332 15.2935C20.1199 15.6802 20.1199 16.3202 19.7332 16.7069L15.0266 21.4135C14.8266 21.6135 14.5732 21.7069 14.3199 21.7069Z" fill="url(#paint1_linear_86_14665)"/>
<defs>
<linearGradient id="paint0_linear_86_14665" x1="16.0003" y1="1.6665" x2="16.0003" y2="30.3332" gradientUnits="userSpaceOnUse">
<stop stop-color="#39CCA9"/>
<stop offset="1" stop-color="#69BBE2"/>
</linearGradient>
<linearGradient id="paint1_linear_86_14665" x1="16.6732" y1="10.2969" x2="16.6732" y2="21.7069" gradientUnits="userSpaceOnUse">
<stop stop-color="#39CCA9"/>
<stop offset="1" stop-color="#69BBE2"/>
</linearGradient>
</defs>
</svg>
